# xmcd
#
# Track frame offsets: 
#        150
#        10901
#        22719
#        35157
#        46943
#        61309
#        76966
#        90034
#        106062
#        120730
#        133746
#        148185
#        167265
#        195386
#        206000
#        221348
#        237223
#        249218
#        261861
#        276676
#        294927
#
# Disc length: 4184 seconds
#
# Revision: 2
# Processed by: cddbd v1.5.1PL0 Copyright (c) Steve Scherf et al.
# Submitted via: ExactAudioCopy v0.95a5
#
DISCID=1a105615
DTITLE=Aretha Franklin and Otis Redding - Legends of Soul Disc 1
DYEAR=2005
DGENRE=Soul
TTITLE0=Aretha Franklin - Respect
TTITLE1=Otis Redding - Shake
TTITLE2=Aretha Franklin - Chain Of Fools
TTITLE3=Otis Redding - I Can't Turn You Loose
TTITLE4=Aretha Franklin - Rock Steady
TTITLE5=Aretha Franklin - Spanish Harlem
TTITLE6=Otis Redding - My Girl
TTITLE7=Aretha Franklin - You're All I Need To Get By
TTITLE8=Aretha Franklin - Son Of A Preacher Man
TTITLE9=Otis Redding - I've Been Loving You Too Long (To Stop Now)
TTITLE10=Aretha Franklin - Do Right Woman, Do Right Man
TTITLE11=Otis Redding - A Change Is Gonna Come
TTITLE12=Aretha Franklin - Something He Can Feel
TTITLE13=Otis Redding - That's How Strong My Love Is
TTITLE14=Aretha Franklin - Until You Come Back To Me (That's What I'm 
TTITLE14=Gonna Do)
TTITLE15=Aretha Franklin - I Say A Little Prayer
TTITLE16=Otis Redding - Mr Pitiful
TTITLE17=Aretha Franklin - I Never Loved A Man (The Way I Love You)
TTITLE18=Otis Redding - Try A Little Tenderness
TTITLE19=Aretha Franklin - Drown In My Own Tears
TTITLE20=Aretha Franklin - Ain't No Way
EXTD=
EXTT0=
EXTT1=
EXTT2=
EXTT3=
EXTT4=
EXTT5=
EXTT6=
EXTT7=
EXTT8=
EXTT9=
EXTT10=
EXTT11=
EXTT12=
EXTT13=
EXTT14=
EXTT15=
EXTT16=
EXTT17=
EXTT18=
EXTT19=
EXTT20=
PLAYORDER=
